<svg xmlns="http://www.w3.org/2000/svg" viewBox="0 0 512 512">
  <rect width="512" height="512" rx="80" fill="#1e293b"/>
  <rect x="120" y="100" width="272" height="312" rx="20" fill="#ffffff" opacity="0.08"/>
  <rect x="140" y="130" width="232" height="16" rx="8" fill="#f59e0b"/>
  <rect x="140" y="165" width="180" height="10" rx="5" fill="#ffffff" opacity="0.4"/>
  <rect x="140" y="185" width="200" height="10" rx="5" fill="#ffffff" opacity="0.3"/>
  <rect x="140" y="205" width="160" height="10" rx="5" fill="#ffffff" opacity="0.3"/>
  <rect x="140" y="235" width="232" height="1" fill="#ffffff" opacity="0.1"/>
  <rect x="140" y="255" width="180" height="10" rx="5" fill="#10b981" opacity="0.7"/>
  <rect x="140" y="275" width="200" height="10" rx="5" fill="#10b981" opacity="0.5"/>
  <rect x="140" y="295" width="150" height="10" rx="5" fill="#10b981" opacity="0.4"/>
  <rect x="140" y="325" width="232" height="1" fill="#ffffff" opacity="0.1"/>
  <rect x="140" y="345" width="180" height="10" rx="5" fill="#ef4444" opacity="0.6"/>
  <rect x="140" y="365" width="130" height="10" rx="5" fill="#ef4444" opacity="0.4"/>
  <text x="256" y="430" text-anchor="middle" font-size="28" font-family="system-ui,sans-serif" font-weight="900" fill="#f59e0b" letter-spacing="2">DAYBOOK MAX</text>
</svg>
